<?xml version="1.0" encoding="UTF-8"?>
<!--
  Design Tools Isometric Illustration
  100% Vector Recreation — Every element is a separate named layer/group
  Viewbox: 1000 x 500
-->
<svg
  xmlns="http://www.w3.org/2000/svg"
  xmlns:inkscape="http://www.inkscape.org/namespaces/inkscape"
  viewBox="0 0 1000 500"
  width="1000"
  height="500"
  style="background:#fff"
>

<!-- ══════════════════════════════════════════════════
     LAYER 01 · White Background
══════════════════════════════════════════════════ -->
<g id="L01-background" inkscape:label="01 · Background" inkscape:groupmode="layer">
  <rect x="0" y="0" width="1000" height="500" fill="#FFFFFF"/>
</g>

<!-- ══════════════════════════════════════════════════
     LAYER 02 · Orange Vertical Column System (center)
══════════════════════════════════════════════════ -->
<g id="L02-orange-bars" inkscape:label="02 · Orange Vertical Bars" inkscape:groupmode="layer">
  <!-- Main thick bar -->
  <rect x="485" y="0"   width="20" height="500" fill="#F5A623"/>
  <!-- Left side bars -->
  <rect x="464" y="50"  width="9"  height="400" fill="#F5A623" opacity="0.75"/>
  <rect x="452" y="90"  width="6"  height="310" fill="#F5A623" opacity="0.55"/>
  <rect x="444" y="130" width="4"  height="240" fill="#F5A623" opacity="0.4"/>
  <!-- Right side bars -->
  <rect x="514" y="70"  width="9"  height="360" fill="#F5A623" opacity="0.75"/>
  <rect x="527" y="110" width="6"  height="280" fill="#F5A623" opacity="0.55"/>
  <rect x="537" y="150" width="4"  height="210" fill="#F5A623" opacity="0.4"/>
  <!-- Short bottom accent segments -->
  <rect x="472" y="330" width="7" height="90"  fill="#F5A623"/>
  <rect x="505" y="350" width="7" height="70"  fill="#F5A623"/>
  <rect x="458" y="360" width="5" height="60"  fill="#F5A623" opacity="0.6"/>
  <rect x="518" y="340" width="5" height="80"  fill="#F5A623" opacity="0.6"/>
</g>

<!-- ══════════════════════════════════════════════════
     LAYER 03 · Orange Starburst / Sunburst
══════════════════════════════════════════════════ -->
<g id="L03-starburst" inkscape:label="03 · Orange Starburst" inkscape:groupmode="layer">
  <!-- 8-pointed starburst, hand-matched to image position ~(430, 168) -->
  <path id="starburst"
    d="M430,120
       L438,148 L460,132 L447,160
       L475,158 L455,175 L478,190
       L450,188 L460,215
       L438,200 L434,228
       L422,202 L408,224
       L410,196 L384,204
       L400,180 L375,172
       L400,162 L380,144
       L408,150 L404,122
       L420,143 Z"
    fill="#F5A623"/>
</g>

<!-- ══════════════════════════════════════════════════
     LAYER 04 · Black Drop Shadow Platform
══════════════════════════════════════════════════ -->
<g id="L04-shadow-platform" inkscape:label="04 · Black Shadow Platform" inkscape:groupmode="layer">
  <polygon id="shadow-far"
    points="308,395 430,440 552,395 430,350"
    fill="#111111"/>
  <polygon id="shadow-near"
    points="340,405 440,442 530,405 430,368"
    fill="#000000" opacity="0.5"/>
</g>

<!-- ══════════════════════════════════════════════════
     LAYER 05 · Mauve/Pink Cube — Top Face
══════════════════════════════════════════════════ -->
<g id="L05-pink-cube-top" inkscape:label="05 · Pink Cube — Top Face" inkscape:groupmode="layer">
  <polygon id="pink-top"
    points="318,224 432,174 546,224 432,274"
    fill="#D4A0C8"/>
</g>

<!-- ══════════════════════════════════════════════════
     LAYER 06 · Mauve/Pink Cube — Left Face
══════════════════════════════════════════════════ -->
<g id="L06-pink-cube-left" inkscape:label="06 · Pink Cube — Left Face" inkscape:groupmode="layer">
  <polygon id="pink-left"
    points="318,224 432,274 432,394 318,344"
    fill="#C67FB8"/>
  <!-- White vertical stripes decorating left face -->
  <polygon id="stripe-1" points="330,278 340,274 340,363 330,368" fill="#FFFFFF" opacity="0.28"/>
  <polygon id="stripe-2" points="354,265 364,261 364,350 354,355" fill="#FFFFFF" opacity="0.28"/>
  <polygon id="stripe-3" points="378,254 388,250 388,339 378,344" fill="#FFFFFF" opacity="0.28"/>
  <polygon id="stripe-4" points="402,244 412,240 412,329 402,334" fill="#FFFFFF" opacity="0.28"/>
</g>

<!-- ══════════════════════════════════════════════════
     LAYER 07 · Mauve/Pink Cube — Right Face
══════════════════════════════════════════════════ -->
<g id="L07-pink-cube-right" inkscape:label="07 · Pink Cube — Right Face" inkscape:groupmode="layer">
  <polygon id="pink-right"
    points="432,274 546,224 546,344 432,394"
    fill="#B86BAB"/>
</g>

<!-- ══════════════════════════════════════════════════
     LAYER 08 · Pink Cube — White Arrow / Bolt Icon
══════════════════════════════════════════════════ -->
<g id="L08-pink-cube-icon" inkscape:label="08 · Pink Cube Arrow Icon" inkscape:groupmode="layer">
  <!-- Arrow pointing upper-right on the front-left face -->
  <g transform="translate(378,310) rotate(-30) scale(1.1)">
    <polygon id="arrow-icon"
      points="0,-28 20,0 12,0 12,28 -12,28 -12,0 -20,0"
      fill="#FFFFFF" opacity="0.92"/>
  </g>
</g>

<!-- ══════════════════════════════════════════════════
     LAYER 09 · Blue Cube — Top Face
══════════════════════════════════════════════════ -->
<g id="L09-blue-cube-top" inkscape:label="09 · Blue Cube — Top Face" inkscape:groupmode="layer">
  <polygon id="blue-top"
    points="428,130 544,80 658,130 542,180"
    fill="#4E6BFF"/>
</g>

<!-- ══════════════════════════════════════════════════
     LAYER 10 · Blue Cube — Left Face
══════════════════════════════════════════════════ -->
<g id="L10-blue-cube-left" inkscape:label="10 · Blue Cube — Left Face" inkscape:groupmode="layer">
  <polygon id="blue-left"
    points="428,130 542,180 542,300 428,250"
    fill="#3356F0"/>
</g>

<!-- ══════════════════════════════════════════════════
     LAYER 11 · Blue Cube — Right Face
══════════════════════════════════════════════════ -->
<g id="L11-blue-cube-right" inkscape:label="11 · Blue Cube — Right Face" inkscape:groupmode="layer">
  <polygon id="blue-right"
    points="542,180 658,130 658,250 542,300"
    fill="#2240CC"/>
</g>

<!-- ══════════════════════════════════════════════════
     LAYER 12 · Blue Cube — Bar Chart Icon
══════════════════════════════════════════════════ -->
<g id="L12-blue-cube-icon" inkscape:label="12 · Blue Cube Bar Chart Icon" inkscape:groupmode="layer">
  <!-- 3 bars on the right face of blue cube -->
  <g id="bar-chart" transform="translate(568,180)">
    <rect x="0"  y="25" width="14" height="38" fill="#FFFFFF" opacity="0.9"/>
    <rect x="18" y="10" width="14" height="53" fill="#FFFFFF" opacity="0.9"/>
    <rect x="36" y="18" width="14" height="45" fill="#FFFFFF" opacity="0.9"/>
    <!-- Baseline -->
    <line x1="0" y1="63" x2="50" y2="63" stroke="#FFFFFF" stroke-width="2" opacity="0.7"/>
  </g>
</g>

<!-- ══════════════════════════════════════════════════
     LAYER 13 · Connector Cylinder / Lock (between cubes)
══════════════════════════════════════════════════ -->
<g id="L13-connector-lock" inkscape:label="13 · Connector Cylinder Lock" inkscape:groupmode="layer">
  <!-- The cylindrical connector visible between the two cubes -->
  <ellipse cx="488" cy="186" rx="22" ry="9"  fill="#C8C8C8"/>
  <rect x="466" y="186" width="44" height="30" fill="#ADADAD"/>
  <ellipse cx="488" cy="216" rx="22" ry="9"  fill="#969696"/>
  <!-- Shackle / lock arch -->
  <path d="M481,186 Q481,168 488,168 Q495,168 495,186"
    stroke="#888888" stroke-width="5" fill="none" stroke-linecap="round"/>
  <!-- Keyhole dot -->
  <circle cx="488" cy="200" r="5" fill="#777777"/>
</g>

<!-- ══════════════════════════════════════════════════
     LAYER 14 · Checkerboard Pattern (center-right)
══════════════════════════════════════════════════ -->
<g id="L14-checkerboard" inkscape:label="14 · Black Checkerboard" inkscape:groupmode="layer">
  <!-- 3×3 grid -->
  <rect x="582" y="278" width="20" height="20" fill="#111111"/>
  <rect x="622" y="278" width="20" height="20" fill="#111111"/>
  <rect x="662" y="278" width="20" height="20" fill="#111111"/>
  <rect x="602" y="298" width="20" height="20" fill="#111111"/>
  <rect x="642" y="298" width="20" height="20" fill="#111111"/>
  <rect x="682" y="298" width="20" height="20" fill="#111111"/>
  <rect x="582" y="318" width="20" height="20" fill="#111111"/>
  <rect x="622" y="318" width="20" height="20" fill="#111111"/>
  <rect x="662" y="318" width="20" height="20" fill="#111111"/>
  <!-- Scattered dots breaking away -->
  <rect x="665" y="252" width="14" height="14" fill="#111111"/>
  <rect x="684" y="262" width="11" height="11" fill="#111111"/>
  <rect x="708" y="290" width="13" height="13" fill="#111111"/>
  <rect x="724" y="272" width="9"  height="9"  fill="#111111"/>
  <rect x="698" y="244" width="11" height="11" fill="#111111"/>
  <rect x="714" y="308" width="10" height="10" fill="#111111"/>
</g>

<!-- ══════════════════════════════════════════════════
     LAYER 15 · Purple/Pink Vertical Stripes (below pink cube)
══════════════════════════════════════════════════ -->
<g id="L15-vertical-stripes" inkscape:label="15 · Purple Pink Vertical Stripes" inkscape:groupmode="layer">
  <rect x="362" y="392" width="9" height="78" fill="#C67FB8"/>
  <rect x="376" y="392" width="9" height="78" fill="#D4A0C8"/>
  <rect x="390" y="392" width="9" height="78" fill="#C67FB8"/>
  <rect x="404" y="392" width="9" height="78" fill="#D4A0C8"/>
  <rect x="418" y="392" width="9" height="78" fill="#C67FB8"/>
</g>

<!-- ══════════════════════════════════════════════════
     LAYER 16 · Outline Rounded Path (bottom left, snake)
══════════════════════════════════════════════════ -->
<g id="L16-rounded-path-bl" inkscape:label="16 · Rounded Snake Path Bottom Left" inkscape:groupmode="layer">
  <path
    d="M75,460 L75,430 Q75,410 95,410 L210,410 Q230,410 230,430 L230,455"
    fill="none" stroke="#111111" stroke-width="3.5"
    stroke-linecap="round" stroke-linejoin="round"/>
</g>

<!-- ══════════════════════════════════════════════════
     LAYER 17 · Pink Horizontal Lines (top-left)
══════════════════════════════════════════════════ -->
<g id="L17-pink-lines-top" inkscape:label="17 · Pink Horizontal Lines Top Left" inkscape:groupmode="layer">
  <line x1="18" y1="40"  x2="158" y2="40"  stroke="#D4A0C8" stroke-width="7" stroke-linecap="round"/>
  <line x1="23" y1="55"  x2="153" y2="55"  stroke="#D4A0C8" stroke-width="7" stroke-linecap="round"/>
  <line x1="28" y1="70"  x2="148" y2="70"  stroke="#D4A0C8" stroke-width="7" stroke-linecap="round"/>
  <!-- Small downward-pointing triangles above lines (slider markers) -->
  <polygon points="65,26 72,38 58,38"   fill="none" stroke="#D4A0C8" stroke-width="1.5"/>
  <polygon points="95,26 102,38 88,38"  fill="none" stroke="#D4A0C8" stroke-width="1.5"/>
</g>

<!-- ══════════════════════════════════════════════════
     LAYER 18 · Orange Dotted Rectangle (left)
══════════════════════════════════════════════════ -->
<g id="L18-dotted-rect" inkscape:label="18 · Orange Dotted Rectangle" inkscape:groupmode="layer">
  <rect x="30" y="118" width="140" height="95"
    fill="none" stroke="#F5A623" stroke-width="1.5" stroke-dasharray="4,3" rx="2"/>
</g>

<!-- ══════════════════════════════════════════════════
     LAYER 19 · Orange Bezier / Wave Curve (left)
══════════════════════════════════════════════════ -->
<g id="L19-orange-wave" inkscape:label="19 · Orange Sine Wave" inkscape:groupmode="layer">
  <path d="M32,176 Q55,145 82,176 Q108,207 135,176 Q155,155 172,165"
    fill="none" stroke="#F5A623" stroke-width="2.2"/>
</g>

<!-- ══════════════════════════════════════════════════
     LAYER 20 · Orange Bezier Curve (top-left, with handles)
══════════════════════════════════════════════════ -->
<g id="L20-bezier-curve" inkscape:label="20 · Orange Bezier Curve with Handles" inkscape:groupmode="layer">
  <!-- Main path -->
  <path id="bc-main" d="M48,94 Q122,52 196,102"
    fill="none" stroke="#F5A623" stroke-width="1.8"/>
  <!-- Endpoints -->
  <circle cx="48"  cy="94"  r="4" fill="none" stroke="#F5A623" stroke-width="1.8"/>
  <circle cx="196" cy="102" r="4" fill="none" stroke="#F5A623" stroke-width="1.8"/>
  <!-- Control handles (dashed) -->
  <line x1="48" y1="94"  x2="92" y2="62"  stroke="#F5A623" stroke-width="1.2" stroke-dasharray="3,2.5"/>
  <line x1="196" y1="102" x2="152" y2="62" stroke="#F5A623" stroke-width="1.2" stroke-dasharray="3,2.5"/>
  <circle cx="92"  cy="62" r="3" fill="#F5A623"/>
  <circle cx="152" cy="62" r="3" fill="#F5A623"/>
  <!-- Double-line equals sign (right of curve) -->
  <line x1="202" y1="93" x2="218" y2="93" stroke="#F5A623" stroke-width="2.2"/>
  <line x1="202" y1="102" x2="218" y2="102" stroke="#F5A623" stroke-width="2.2"/>
</g>

<!-- ══════════════════════════════════════════════════
     LAYER 21 · Blue Arc / Bezier Curve (bottom-left)
══════════════════════════════════════════════════ -->
<g id="L21-blue-arc" inkscape:label="21 · Blue Arc Bezier Bottom Left" inkscape:groupmode="layer">
  <path d="M18,296 Q100,244 182,296"
    fill="none" stroke="#4E6BFF" stroke-width="2"/>
  <!-- Endpoints -->
  <circle cx="18"  cy="296" r="4" fill="none" stroke="#4E6BFF" stroke-width="1.8"/>
  <circle cx="182" cy="296" r="4" fill="none" stroke="#4E6BFF" stroke-width="1.8"/>
  <!-- Control point dot at apex -->
  <circle cx="100" cy="246" r="3.5" fill="none" stroke="#4E6BFF" stroke-width="1.8"/>
  <!-- Handle lines -->
  <line x1="18"  y1="296" x2="58"  y2="260" stroke="#4E6BFF" stroke-width="1" stroke-dasharray="3,2.5"/>
  <line x1="182" y1="296" x2="142" y2="260" stroke="#4E6BFF" stroke-width="1" stroke-dasharray="3,2.5"/>
</g>

<!-- ══════════════════════════════════════════════════
     LAYER 22 · Small Color Squares (left-center, palette)
══════════════════════════════════════════════════ -->
<g id="L22-small-squares" inkscape:label="22 · Small Color Squares Palette" inkscape:groupmode="layer">
  <rect x="215" y="268" width="11" height="11" fill="#4E6BFF"/>
  <rect x="230" y="268" width="11" height="11" fill="#4E6BFF"/>
  <rect x="245" y="268" width="9"  height="9"  fill="#8B5CF6"/>
  <rect x="260" y="265" width="13" height="13" fill="#111111"/>
  <rect x="278" y="265" width="13" height="13" fill="#111111"/>
  <rect x="215" y="283" width="9"  height="9"  fill="#D4A0C8"/>
</g>

<!-- ══════════════════════════════════════════════════
     LAYER 23 · Pink Triangles (bottom-left)
══════════════════════════════════════════════════ -->
<g id="L23-pink-triangles" inkscape:label="23 · Pink Triangles Bottom Left" inkscape:groupmode="layer">
  <polygon points="18,438 78,335 138,438"
    fill="none" stroke="#D4A0C8" stroke-width="2"/>
  <polygon points="40,438 78,368 116,438"
    fill="none" stroke="#D4A0C8" stroke-width="1.6"/>
</g>

<!-- ══════════════════════════════════════════════════
     LAYER 24 · Cursor Arrow (left)
══════════════════════════════════════════════════ -->
<g id="L24-cursor" inkscape:label="24 · Cursor Arrow" inkscape:groupmode="layer">
  <polygon id="cursor"
    points="160,198 160,234 170,226 178,244 185,241 177,223 190,223"
    fill="#FFFFFF" stroke="#111111" stroke-width="1.8" stroke-linejoin="round"/>
</g>

<!-- ══════════════════════════════════════════════════
     LAYER 25 · Black Horizontal Bar Marks (top-left)
══════════════════════════════════════════════════ -->
<g id="L25-black-bars" inkscape:label="25 · Black Horizontal Bar Marks" inkscape:groupmode="layer">
  <rect x="18"  y="108" width="42" height="5" fill="#111111" rx="1"/>
  <rect x="18"  y="118" width="36" height="5" fill="#111111" rx="1"/>
  <rect x="18"  y="128" width="40" height="5" fill="#111111" rx="1"/>
</g>

<!-- ══════════════════════════════════════════════════
     LAYER 26 · Corner Bracket (top-right)
══════════════════════════════════════════════════ -->
<g id="L26-corner-bracket-tr" inkscape:label="26 · Corner Bracket Top Right" inkscape:groupmode="layer">
  <path d="M755,78 L822,78 L822,148"
    fill="none" stroke="#111111" stroke-width="4" stroke-linecap="round" stroke-linejoin="round"/>
  <path d="M767,90 L812,90 L812,148"
    fill="none" stroke="#111111" stroke-width="4" stroke-linecap="round" stroke-linejoin="round"/>
</g>

<!-- ══════════════════════════════════════════════════
     LAYER 27 · Phone / Card Frame (right side)
══════════════════════════════════════════════════ -->
<g id="L27-phone-frame" inkscape:label="27 · Phone Card Frame Right" inkscape:groupmode="layer">
  <rect x="658" y="112" width="78" height="128" rx="14" ry="14"
    fill="none" stroke="#111111" stroke-width="3.2"/>
  <rect x="666" y="126" width="62" height="100" rx="5" ry="5"
    fill="none" stroke="#111111" stroke-width="1.8"/>
</g>

<!-- ══════════════════════════════════════════════════
     LAYER 28 · Right Snake / C-Bracket (right center)
══════════════════════════════════════════════════ -->
<g id="L28-snake-bracket-r" inkscape:label="28 · Right Snake C-Bracket" inkscape:groupmode="layer">
  <path d="M762,178 L836,178 Q858,178 858,200 L858,248 Q858,268 836,268 L762,268"
    fill="none" stroke="#111111" stroke-width="4" stroke-linecap="round" stroke-linejoin="round"/>
  <path d="M774,192 L834,192 Q844,192 844,202 L844,246 Q844,256 834,256 L774,256"
    fill="none" stroke="#111111" stroke-width="4" stroke-linecap="round" stroke-linejoin="round"/>
</g>

<!-- ══════════════════════════════════════════════════
     LAYER 29 · Black Squares (right side accent)
══════════════════════════════════════════════════ -->
<g id="L29-black-squares-r" inkscape:label="29 · Black Square Accents Right" inkscape:groupmode="layer">
  <rect x="740" y="152" width="14" height="14" fill="#111111"/>
  <rect x="758" y="138" width="10" height="10" fill="#111111"/>
  <rect x="772" y="155" width="9"  height="9"  fill="#111111"/>
</g>

<!-- ══════════════════════════════════════════════════
     LAYER 30 · Orange Wireframe UI Component (bottom-right)
══════════════════════════════════════════════════ -->
<g id="L30-wireframe-ui" inkscape:label="30 · Orange Wireframe UI Box" inkscape:groupmode="layer">
  <!-- Outer container -->
  <rect x="700" y="358" width="138" height="92" rx="3"
    fill="none" stroke="#F5A623" stroke-width="2"/>
  <!-- Header row -->
  <rect x="700" y="358" width="138" height="22"
    fill="none" stroke="#F5A623" stroke-width="2"/>
  <!-- Divider lines (content rows) -->
  <line x1="712" y1="396" x2="828" y2="396" stroke="#F5A623" stroke-width="1.5" opacity="0.6"/>
  <line x1="712" y1="414" x2="820" y2="414" stroke="#F5A623" stroke-width="1.5" opacity="0.6"/>
  <line x1="712" y1="432" x2="824" y2="432" stroke="#F5A623" stroke-width="1.5" opacity="0.6"/>
  <!-- Left sidebar separator -->
  <line x1="724" y1="380" x2="724" y2="450" stroke="#F5A623" stroke-width="1.5" opacity="0.6"/>
</g>

<!-- ══════════════════════════════════════════════════
     LAYER 31 · Orange Folder / File Component (bottom-right)
══════════════════════════════════════════════════ -->
<g id="L31-orange-folder" inkscape:label="31 · Orange Folder Component" inkscape:groupmode="layer">
  <rect x="752" y="365" width="122" height="78" rx="4"
    fill="none" stroke="#F5A623" stroke-width="2"/>
  <path d="M752,365 L752,354 Q752,348 758,348 L795,348 Q804,348 806,355 L806,365"
    fill="none" stroke="#F5A623" stroke-width="2"/>
  <line x1="764" y1="384" x2="862" y2="384" stroke="#F5A623" stroke-width="1.5" opacity="0.6"/>
  <line x1="764" y1="400" x2="852" y2="400" stroke="#F5A623" stroke-width="1.5" opacity="0.6"/>
  <line x1="764" y1="416" x2="856" y2="416" stroke="#F5A623" stroke-width="1.5" opacity="0.6"/>
</g>

<!-- ══════════════════════════════════════════════════
     LAYER 32 · Pink Triangle (right, decorative)
══════════════════════════════════════════════════ -->
<g id="L32-pink-triangle-r" inkscape:label="32 · Pink Triangle Right" inkscape:groupmode="layer">
  <polygon points="752,315 845,315 798,248"
    fill="none" stroke="#D4A0C8" stroke-width="1.8"/>
</g>

<!-- ══════════════════════════════════════════════════
     LAYER 33 · Orange + Pink Grid (bottom-right)
══════════════════════════════════════════════════ -->
<g id="L33-grid-bg" inkscape:label="33 · Grid Background Bottom Right" inkscape:groupmode="layer">
  <!-- Outer orange box -->
  <rect x="804" y="342" width="148" height="118"
    fill="none" stroke="#F5A623" stroke-width="2"/>
  <!-- Orange horizontal lines -->
  <line x1="804" y1="371" x2="952" y2="371" stroke="#F5A623" stroke-width="1" opacity="0.5"/>
  <line x1="804" y1="400" x2="952" y2="400" stroke="#F5A623" stroke-width="1" opacity="0.5"/>
  <line x1="804" y1="429" x2="952" y2="429" stroke="#F5A623" stroke-width="1" opacity="0.5"/>
  <!-- Orange vertical lines -->
  <line x1="841" y1="342" x2="841" y2="460" stroke="#F5A623" stroke-width="1" opacity="0.5"/>
  <line x1="878" y1="342" x2="878" y2="460" stroke="#F5A623" stroke-width="1" opacity="0.5"/>
  <line x1="915" y1="342" x2="915" y2="460" stroke="#F5A623" stroke-width="1" opacity="0.5"/>
  <!-- Pink grid overlay -->
  <rect x="814" y="352" width="132" height="102"
    fill="none" stroke="#D4A0C8" stroke-width="1.5"/>
  <line x1="814" y1="378" x2="946" y2="378" stroke="#D4A0C8" stroke-width="1" opacity="0.55"/>
  <line x1="814" y1="404" x2="946" y2="404" stroke="#D4A0C8" stroke-width="1" opacity="0.55"/>
  <line x1="814" y1="430" x2="946" y2="430" stroke="#D4A0C8" stroke-width="1" opacity="0.55"/>
  <line x1="847" y1="352" x2="847" y2="454" stroke="#D4A0C8" stroke-width="1" opacity="0.55"/>
  <line x1="880" y1="352" x2="880" y2="454" stroke="#D4A0C8" stroke-width="1" opacity="0.55"/>
  <line x1="913" y1="352" x2="913" y2="454" stroke="#D4A0C8" stroke-width="1" opacity="0.55"/>
</g>

<!-- ══════════════════════════════════════════════════
     LAYER 34 · Blue Line Chart (bottom-right)
══════════════════════════════════════════════════ -->
<g id="L34-blue-line-chart" inkscape:label="34 · Blue Line Chart" inkscape:groupmode="layer">
  <!-- Axes -->
  <line x1="818" y1="448" x2="948" y2="448" stroke="#4E6BFF" stroke-width="1.8"/>
  <line x1="818" y1="355" x2="818" y2="448" stroke="#4E6BFF" stroke-width="1.8"/>
  <!-- Rising line -->
  <polyline
    points="822,443 840,436 858,438 876,420 892,405 910,398 924,382 940,362"
    fill="none" stroke="#4E6BFF" stroke-width="2.2" stroke-linejoin="round"/>
  <!-- Endpoint circle marker -->
  <circle cx="940" cy="362" r="4.5" fill="none" stroke="#4E6BFF" stroke-width="2.2"/>
</g>

</svg>
